<svg id="e7XGylhxCrw1" xmlns="http://www.w3.org/2000/svg" xmlns:xlink="http://www.w3.org/1999/xlink" viewBox="0 0 744.799210 449.140980" shape-rendering="geometricPrecision" text-rendering="geometricPrecision"><path id="e7XGylhxCrw2" d="M952.840160,674.570490C1021.074500,553.874560,890.199340,492.060850,873.353880,619.513420C872.500570,603.065480,871.596880,586.352810,866.133000,570.815470C857.835590,538.582980,812.748380,515.226720,791.213410,547.854470C779.829280,568.071340,794.926230,596.431250,781.834300,615.588710C773.576610,567.374010,703.570910,578.684710,710.942390,627.061410C716.476240,650.303230,741.032110,663.828850,760.633270,674.343140Z" transform="matrix(1 0 0 1 -227.59999999999999 -225.43000000000001)" fill="rgb(242,242,242)" stroke="none" stroke-width="1"/><path id="e7XGylhxCrw3" d="M720.969790,597.856900C755.606410,609.095740,798.891650,628.027390,802.403120,669.407070C802.503930,671.047430,805.071180,671.058880,804.969680,669.406540C804.072130,654.795480,796.951590,641.424320,787.091530,630.849780C776.281060,619.255950,762.272170,611.337530,747.808530,605.193780C744.981840,604.539900,715.545820,590.614420,720.969790,597.856900Z" transform="matrix(1 0 0 1 -227.59999999999999 -225.43000000000001)" fill="rgb(255,255,255)" stroke="none" stroke-width="1"/><path id="e7XGylhxCrw4" d="M808.477800,537.334000C832.448334,577.360210,843.853764,623.659567,841.218000,670.240000C841.122810,671.890070,843.689670,671.884590,843.784580,670.240000C845.827771,633.628248,839.307565,597.044296,824.741630,563.392720C823.105780,560.380970,809.908570,528.664990,808.477780,537.333990Z" transform="matrix(1 0 0 1 -227.59999999999999 -225.43000000000001)" fill="rgb(255,255,255)" stroke="none" stroke-width="1"/><path id="e7XGylhxCrw5" d="M934.094700,552.076600C917.196356,590.068864,906.736407,630.607763,903.143230,672.033060C902.999710,673.678200,905.567100,673.668570,905.709750,672.033060C908.505364,640.090570,915.409041,608.642025,926.249940,578.465660C926.219470,575.104310,941.012630,547.823750,934.094700,552.076660Z" transform="matrix(1 0 0 1 -227.59999999999999 -225.43000000000001)" fill="rgb(255,255,255)" stroke="none" stroke-width="1"/><path id="e7XGylhxCrw6" d="M636.800530,672.494590C656.333260,637.944220,618.869000,620.249460,614.046820,656.733970C613.802560,652.025590,613.543820,647.241430,611.979820,642.793720C609.604600,633.566860,596.697960,626.880910,590.533370,636.220920C587.274550,642.008190,591.596200,650.126490,587.848510,655.610490C585.484670,641.808570,565.444870,645.046360,567.555020,658.894660C569.139140,665.547850,576.168490,669.419660,581.779510,672.429510Z" transform="matrix(1 0 0 1 -227.59999999999999 -225.43000000000001)" fill="rgb(242,242,242)" stroke="none" stroke-width="1"/><path id="e7XGylhxCrw7" d="M570.425420,650.534590C580.340480,653.751810,592.731300,659.171180,593.736490,671.016510C593.765350,671.486080,594.500250,671.489350,594.471190,671.016350C594.092877,666.856162,592.284298,662.955705,589.353400,659.979110C586.159727,656.771742,582.328903,654.269803,578.108280,652.634840C577.299100,652.447660,568.872760,648.461360,570.425420,650.534590Z" transform="matrix(1 0 0 1 -227.59999999999999 -225.43000000000001)" fill="rgb(255,255,255)" stroke="none" stroke-width="1"/><path id="e7XGylhxCrw8" d="M595.475420,633.209320C602.337226,644.667200,605.602146,657.920834,604.847630,671.254930C604.820380,671.727280,605.555170,671.725710,605.582330,671.254930C606.167209,660.774485,604.300740,650.301998,600.131110,640.668930C599.662830,639.806780,595.885000,630.727780,595.475420,633.209370Z" transform="matrix(1 0 0 1 -227.59999999999999 -225.43000000000001)" fill="rgb(255,255,255)" stroke="none" stroke-width="1"/><path id="e7XGylhxCrw9" d="M631.434460,637.429540C626.597147,648.305187,623.602888,659.909834,622.574310,671.768220C622.533220,672.239160,623.268160,672.236400,623.309000,671.768220C624.109270,662.624377,626.085515,653.621931,629.188830,644.983660C629.180100,644.021440,633.414780,636.212120,631.434460,637.429540Z" transform="matrix(1 0 0 1 -227.59999999999999 -225.43000000000001)" fill="rgb(255,255,255)" stroke="none" stroke-width="1"/><path id="e7XGylhxCrw10" d="M511.600390,244.429510L228.600390,244.429510C228.048105,244.429510,227.600390,243.981795,227.600390,243.429510C227.600390,242.877225,228.048105,242.429510,228.600390,242.429510L511.600390,242.429510C512.152675,242.429510,512.600390,242.877225,512.600390,243.429510C512.600390,243.981795,512.152675,244.429510,511.600390,244.429510Z" transform="matrix(1 0 0 1 -227.59999999999999 -225.43000000000001)" fill="rgb(63,61,86)" stroke="none" stroke-width="1"/><circle id="e7XGylhxCrw11" r="17" transform="matrix(1 0 0 1 125.50038999894528 17.99951000000000)" fill="rgb(108,99,255)" stroke="none" stroke-width="1"/><path id="e7XGylhxCrw12" d="M511.600390,308.429510L228.600390,308.429510C228.048105,308.429510,227.600390,307.981795,227.600390,307.429510C227.600390,306.877225,228.048105,306.429510,228.600390,306.429510L511.600390,306.429510C512.152675,306.429510,512.600390,306.877225,512.600390,307.429510C512.600390,307.981795,512.152675,308.429510,511.600390,308.429510Z" transform="matrix(1 0 0 1 -227.59999999999999 -225.43000000000001)" fill="rgb(63,61,86)" stroke="none" stroke-width="1"/><circle id="e7XGylhxCrw13" r="17" transform="matrix(1 0 0 1 67.79920959472655 80.00049000000000)" fill="rgb(108,99,255)" stroke="none" stroke-width="1"/><circle id="e7XGylhxCrw14" r="17" transform="matrix(1 0 0 1 67.79920959472655 80.00049000000001)" fill="rgb(108,99,255)" stroke="none" stroke-width="1"/><path id="e7XGylhxCrw15" d="M511.600390,372.429510L228.600390,372.429510C228.048105,372.429510,227.600390,371.981795,227.600390,371.429510C227.600390,370.877225,228.048105,370.429510,228.600390,370.429510L511.600390,370.429510C512.152675,370.429510,512.600390,370.877225,512.600390,371.429510C512.600390,371.981795,512.152675,372.429510,511.600390,372.429510Z" transform="matrix(1 0 0 1 -227.59999999999999 -225.43000000000001)" fill="rgb(63,61,86)" stroke="none" stroke-width="1"/><circle id="e7XGylhxCrw16" r="17" transform="matrix(1 0 0 1 0.00078000000008 145.07060803999977)" fill="rgb(108,99,255)" stroke="none" stroke-width="1"/><path id="e7XGylhxCrw17" d="M641.164790,382.596000C641.515823,383.072454,641.828743,383.575843,642.100640,384.101490L694.807320,390.027970L702.472880,379.671120L719.615240,389.196900L704.525410,414.354240L639.952620,397.407610C636.588214,400.642020,631.573502,401.457273,627.357786,399.455181C623.142070,397.453088,620.604953,393.051382,620.985621,388.399960C621.366290,383.748538,624.585319,379.817910,629.070458,378.527888C633.555598,377.237867,638.371033,378.857611,641.164790,382.596000Z" transform="matrix(1 0 0 1 -227.59999999999999 -226.19243685999999)" fill="rgb(255,184,184)" stroke="none" stroke-width="1"/><path id="e7XGylhxCrw18" d="M715.869570,398.206650C715.445085,398.020102,715.049690,397.773371,714.695570,397.474060L693.512400,379.629420C692.482849,378.762388,691.863510,377.503772,691.804705,376.159057C691.745900,374.814341,692.253006,373.506465,693.202940,372.552870L712.425550,353.250870C714.093848,351.561505,716.748271,351.350084,718.662950,352.754070L733.199800,363.310140C735.071328,364.670279,735.710865,367.169254,734.722800,369.261220L722.147000,395.850820C721.034092,398.202474,718.254921,399.245464,715.869610,398.206650Z" transform="matrix(1 0 0 1 -227.59999999999999 -225.43000000000001)" fill="rgb(108,99,255)" stroke="none" stroke-width="1"/><polygon id="e7XGylhxCrw19" points="570.892000,425.157000 558.240000,428.599000 538.942000,381.438000 557.614000,376.358000 570.892000,425.157000" fill="rgb(255,184,184)" stroke="none" stroke-width="1"/><path id="e7XGylhxCrw20" d="M776.711530,651.364270L803.032400,651.364270L803.032400,667.285440L761.824670,667.285440L761.824670,666.251130C761.824670,662.302889,763.393103,658.516358,766.184930,655.724530C768.976758,652.932703,772.763289,651.364270,776.711530,651.364270Z" transform="matrix(0.96492000000000 -0.26254000000000 0.26254000000000 0.96492000000000 -373.25200000000001 3.11506000000000)" fill="rgb(47,46,65)" stroke="none" stroke-width="1"/><polygon id="e7XGylhxCrw21" points="462.735000,434.811000 449.624000,434.810000 443.386000,384.237000 462.738000,384.238000 462.735000,434.811000" fill="rgb(255,184,184)" stroke="none" stroke-width="1"/><path id="e7XGylhxCrw22" d="M439.223890,431.063870L465.544760,431.063870L465.544760,446.985000L424.337000,446.985000L424.337000,445.950690C424.337022,437.728908,431.002108,431.063853,439.223890,431.063870Z" fill="rgb(47,46,65)" stroke="none" stroke-width="1"/><circle id="e7XGylhxCrw23" r="26.267500" transform="matrix(0.70710700000000 -0.70710700000000 0.70710700000000 0.70710700000000 482.48642894300019 74.63245232500009)" fill="rgb(255,184,184)" stroke="none" stroke-width="1"/><path id="e7XGylhxCrw24" d="M689.532840,624.181910L671.615180,624.181910C669.073453,624.177337,666.970815,622.202373,666.807240,619.665910C661.468240,534.790790,664.591240,473.907910,676.635410,428.065550C676.688115,427.865001,676.753241,427.667924,676.830410,427.475460L677.789960,425.076460C678.515607,423.244895,680.288676,422.044414,682.258740,422.050810L719.104300,422.050810C720.509468,422.049690,721.844707,422.663736,722.758430,423.731260L727.762990,429.570570C727.860640,429.684410,727.951990,429.800340,728.039990,429.922570C750.607100,461.392770,770.831080,522.917990,794.253830,605.614460C794.972944,608.113629,793.569498,610.730621,791.089830,611.514340L771.834020,617.676340C769.549290,618.395742,767.082065,617.335180,766.032020,615.182290L716.063230,511.542170C715.345782,510.054902,713.738564,509.213416,712.107522,509.471090C710.476479,509.728765,709.206939,511.024727,708.982910,512.660730L694.301100,620.021000C693.967768,622.400858,691.935915,624.173907,689.532840,624.181910Z" transform="matrix(1 0 0 1 -227.59999999999999 -225.43000000000001)" fill="rgb(47,46,65)" stroke="none" stroke-width="1"/><path id="e7XGylhxCrw25" d="M725.743100,429.997680C725.692700,429.997680,725.642570,429.996680,725.591920,429.995590L680.836000,428.582500C678.457696,428.515991,676.487518,426.716276,676.206640,424.353680C670.533140,378.428830,686.093040,366.125680,693.046210,362.968420C694.228025,362.435110,695.044456,361.322096,695.198210,360.034670L695.799790,355.220970C695.902396,354.370913,696.230742,353.563836,696.750720,352.883580C707.652550,338.761050,722.538800,334.238750,730.442120,332.800580C731.737504,332.567770,733.071683,332.876478,734.133147,333.654626C735.194612,334.432773,735.890445,335.612244,736.058180,336.917650L736.959510,343.829560C737.051340,344.488854,737.314397,345.112558,737.722450,345.638480C760.458450,375.361380,735.129450,419.247540,729.820960,427.742780L729.820960,427.742780C728.939213,429.144946,727.399465,429.996368,725.743100,429.997680Z" transform="matrix(1 0 0 1 -227.59999999999999 -225.43000000000001)" fill="rgb(108,99,255)" stroke="none" stroke-width="1"/><path id="e7XGylhxCrw26" d="M721.568590,495.273640C724.352297,493.321253,726.128244,490.236134,726.418558,486.848427C726.708873,483.460720,725.483733,480.118419,723.072800,477.720870L731.386130,377.327590L706.634000,380.732700L706.163100,478.273900C702.319459,482.687996,702.384758,489.279297,706.315096,493.616377C710.245433,497.953457,716.798493,498.665436,721.568560,495.273640Z" transform="matrix(1 0 0 1 -227.59999999999999 -225.43000000000001)" fill="rgb(255,184,184)" stroke="none" stroke-width="1"/><path id="e7XGylhxCrw27" d="M733.003580,391.783720C732.539925,391.783688,732.078694,391.716855,731.634100,391.585280L705.061930,383.770000C703.770567,383.390394,702.697231,382.487264,702.102436,381.279814C701.507641,380.072363,701.445766,378.670983,701.931830,377.415810L711.765480,352.011550C712.613243,349.793802,714.958344,348.532430,717.276050,349.047550L734.831300,352.863830C737.091867,353.356177,738.682663,355.386746,738.619640,357.699450L737.802910,387.101710C737.730063,389.702393,735.605269,391.775286,733.003580,391.783810Z" transform="matrix(1 0 0 1 -227.59999999999999 -225.43000000000001)" fill="rgb(108,99,255)" stroke="none" stroke-width="1"/><path id="e7XGylhxCrw28" d="M954.616140,674.429510L573.616140,674.429510C573.063855,674.429510,572.616140,673.981795,572.616140,673.429510C572.616140,672.877225,573.063855,672.429510,573.616140,672.429510L954.616140,672.429510C955.168425,672.429510,955.616140,672.877225,955.616140,673.429510C955.616140,673.981795,955.168425,674.429510,954.616140,674.429510Z" transform="matrix(1 0 0 1 -227.59999999999999 -225.43000000000001)" fill="rgb(63,61,86)" stroke="none" stroke-width="1"/><path id="e7XGylhxCrw29" d="M738.988190,283.725830C737.037243,277.811544,735.597073,271.740847,734.683510,265.580460C734.396390,261.993930,735.315160,258.134880,737.927060,255.660280C742.815130,251.029180,751.119990,253.234930,756.231800,257.617810C763.619530,263.952070,767.304070,273.686530,768.696540,283.317810C770.089010,292.949090,769.476350,302.743200,769.811540,312.468890C770.146730,322.194580,771.537720,332.194820,776.496050,340.568380C781.454380,348.941940,790.655500,355.369380,800.360840,354.656750C804.278235,354.445045,807.997926,352.868682,810.874570,350.201150C813.739857,347.475255,815.104799,343.528811,814.535910,339.615150C819.496400,348.497550,816.981820,360.536080,809.582810,367.518780C802.183800,374.501480,790.802710,376.475430,781.075650,373.494140C771.348590,370.512850,763.342900,363.037480,758.561000,354.057660C753.779100,345.077840,752.026790,334.704480,752.280740,324.533980C752.475740,316.723820,753.803360,308.849740,752.483550,301.149440C751.163740,293.449140,746.344550,285.630520,738.745260,283.817220Z" transform="matrix(1.01381440406006 0.02923849630457 -0.02961183952195 1.02675969124219 -229.89599521000000 -235.58108038499995)" fill="rgb(47,46,65)" stroke="none" stroke-width="1"/><path id="e7XGylhxCrw30" d="M704.861800,293.849660C703.566150,298.177770,698.610320,300.846660,694.152130,300.114660C689.693940,299.382660,686.027930,295.711180,684.673250,291.401180C683.448637,286.999112,683.950040,282.295641,686.075130,278.250660C688.440266,273.353936,692.655907,269.598992,697.792520,267.813780C702.982867,266.093691,708.685481,267.004910,713.081360,270.256780C713.551118,268.276970,715.053850,266.705428,717.010660,266.147560C718.945836,265.626050,720.988302,265.656185,722.907250,266.234560C728.436708,267.810349,733.228133,271.296075,736.429560,276.071940C739.590206,280.833088,741.681108,286.222844,742.558210,291.869870C744.066930,300.338450,743.510440,309.592270,738.754210,316.759650C733.997980,323.927030,724.267350,328.159170,716.373260,324.742100C715.881020,322.225680,717.047110,319.691830,718.396200,317.511310C719.745290,315.330790,721.344200,313.206610,721.862430,310.695410C722.380660,308.184210,721.387130,305.112530,718.958080,304.291300C716.885820,303.590690,714.676410,304.725770,712.493210,304.862840C709.969950,305.021259,707.553513,303.822921,706.152473,301.718397C704.751433,299.613872,704.578173,296.922188,705.697840,294.655410Z" transform="matrix(1 0 0 1 -227.59999999999999 -225.43000000000001)" fill="rgb(47,46,65)" stroke="none" stroke-width="1"/><script><![CDATA[!function(t,n){"object"==typeof exports&&"undefined"!=typeof module?module.exports=n():"function"==typeof define&&define.amd?define(n):(t="undefined"!=typeof globalThis?globalThis:t||self).__SVGATOR_PLAYER__=n()}(this,(function(){"use strict";function t(n){return(t="function"==typeof Symbol&&"symbol"==typeof Symbol.iterator?function(t){return typeof t}:function(t){return t&&"function"==typeof Symbol&&t.constructor===Symbol&&t!==Symbol.prototype?"symbol":typeof t})(n)}function n(t,n){if(!(t instanceof n))throw new TypeError("Cannot call a class as a function")}function r(t,n){for(var r=0;r<n.length;r++){var e=n[r];e.enumerable=e.enumerable||!1,e.configurable=!0,"value"in e&&(e.writable=!0),Object.defineProperty(t,e.key,e)}}function e(t,n,e){return n&&r(t.prototype,n),e&&r(t,e),t}function i(t){return(i=Object.setPrototypeOf?Object.getPrototypeOf:function(t){return t.__proto__||Object.getPrototypeOf(t)})(t)}function o(t,n){return(o=Object.setPrototypeOf||function(t,n){return t.__proto__=n,t})(t,n)}function u(t,n){return!n||"object"!=typeof n&&"function"!=typeof n?function(t){if(void 0===t)throw new ReferenceError("this hasn't been initialised - super() hasn't been called");return t}(t):n}function a(t){var n=function(){if("undefined"==typeof Reflect||!Reflect.construct)return!1;if(Reflect.construct.sham)return!1;if("function"==typeof Proxy)return!0;try{return Boolean.prototype.valueOf.call(Reflect.construct(Boolean,[],(function(){}))),!0}catch(t){return!1}}();return function(){var r,e=i(t);if(n){var o=i(this).constructor;r=Reflect.construct(e,arguments,o)}else r=e.apply(this,arguments);return u(this,r)}}function l(t,n,r){return(l="undefined"!=typeof Reflect&&Reflect.get?Reflect.get:function(t,n,r){var e=function(t,n){for(;!Object.prototype.hasOwnProperty.call(t,n)&&null!==(t=i(t)););return t}(t,n);if(e){var o=Object.getOwnPropertyDescriptor(e,n);return o.get?o.get.call(r):o.value}})(t,n,r||t)}var f=Math.abs;function s(t){return t}function c(t,n,r){var e=1-r;return 3*r*e*(t*e+n*r)+r*r*r}function h(){var t=arguments.length>0&&void 0!==arguments[0]?arguments[0]:0,n=arguments.length>1&&void 0!==arguments[1]?arguments[1]:0,r=arguments.length>2&&void 0!==arguments[2]?arguments[2]:1,e=arguments.length>3&&void 0!==arguments[3]?arguments[3]:1;return t<0||t>1||r<0||r>1?null:f(t-n)<=1e-5&&f(r-e)<=1e-5?s:function(i){if(i<=0)return t>0?i*n/t:0===n&&r>0?i*e/r:0;if(i>=1)return r<1?1+(i-1)*(e-1)/(r-1):1===r&&t<1?1+(i-1)*(n-1)/(t-1):1;for(var o,u=0,a=1;u<a;){var l=c(t,r,o=(u+a)/2);if(f(i-l)<1e-5)break;l<i?u=o:a=o}return c(n,e,o)}}function v(){return 1}function y(t){return 1===t?1:0}function d(){var t=arguments.length>0&&void 0!==arguments[0]?arguments[0]:1,n=arguments.length>1&&void 0!==arguments[1]?arguments[1]:0;if(1===t){if(0===n)return y;if(1===n)return v}var r=1/t;return function(t){return t>=1?1:(t+=n*r)-t%r}}function g(t){var n=arguments.length>1&&void 0!==arguments[1]?arguments[1]:2;if(Number.isInteger(t))return t;var r=Math.pow(10,n);return Math.round(t*r)/r}var p=Math.PI/180;function m(t,n,r){return t>=.5?r:n}function b(t,n,r){return 0===t||n===r?n:t*(r-n)+n}function w(t,n,r){var e=b(t,n,r);return e<=0?0:e}function x(t,n,r){return 0===t?n:1===t?r:{x:b(t,n.x,r.x),y:b(t,n.y,r.y)}}function k(t,n,r){var e=function(t,n,r){return Math.round(b(t,n,r))}(t,n,r);return e<=0?0:e>=255?255:e}function A(t,n,r){return 0===t?n:1===t?r:{r:k(t,n.r,r.r),g:k(t,n.g,r.g),b:k(t,n.b,r.b),a:b(t,null==n.a?1:n.a,null==r.a?1:r.a)}}function _(t,n,r){if(0===t)return n;if(1===t)return r;var e=n.length;if(e!==r.length)return m(t,n,r);for(var i=[],o=0;o<e;o++)i.push(A(t,n[o],r[o]));return i}function S(t,n){for(var r=[],e=0;e<t;e++)r.push(n);return r}function O(t,n){if(--n<=0)return t;var r=(t=Object.assign([],t)).length;do{for(var e=0;e<r;e++)t.push(t[e])}while(--n>0);return t}var M,j=function(){function t(r){n(this,t),this.list=r,this.length=r.length}return e(t,[{key:"setAttribute",value:function(t,n){for(var r=this.list,e=0;e<this.length;e++)r[e].setAttribute(t,n)}},{key:"removeAttribute",value:function(t){for(var n=this.list,r=0;r<this.length;r++)n[r].removeAttribute(t)}},{key:"style",value:function(t,n){for(var r=this.list,e=0;e<this.length;e++)r[e].style[t]=n}}]),t}(),F=/-./g,P=function(t,n){return n.toUpperCase()};function B(t){return"function"==typeof t?t:m}function I(t){return t?"function"==typeof t?t:Array.isArray(t)?function(t){var n=arguments.length>1&&void 0!==arguments[1]?arguments[1]:s;if(!Array.isArray(t))return n;switch(t.length){case 1:return d(t[0])||n;case 2:return d(t[0],t[1])||n;case 4:return h(t[0],t[1],t[2],t[3])||n}return n}(t,null):function(t,n){var r=arguments.length>2&&void 0!==arguments[2]?arguments[2]:s;switch(t){case"linear":return s;case"steps":return d(n.steps||1,n.jump||0)||r;case"bezier":case"cubic-bezier":return h(n.x1||0,n.y1||0,n.x2||0,n.y2||0)||r}return r}(t.type,t.value,null):null}function R(t,n,r){var e=arguments.length>3&&void 0!==arguments[3]&&arguments[3],i=n.length-1;if(t<=n[0].t)return e?[0,0,n[0].v]:n[0].v;if(t>=n[i].t)return e?[i,1,n[i].v]:n[i].v;var o,u=n[0],a=null;for(o=1;o<=i;o++){if(!(t>n[o].t)){a=n[o];break}u=n[o]}return null==a?e?[i,1,n[i].v]:n[i].v:u.t===a.t?e?[o,1,a.v]:a.v:(t=(t-u.t)/(a.t-u.t),u.e&&(t=u.e(t)),e?[o,t,r(t,u.v,a.v)]:r(t,u.v,a.v))}function q(t,n){var r=arguments.length>2&&void 0!==arguments[2]?arguments[2]:null;return t&&t.length?"function"!=typeof n?null:("function"!=typeof r&&(r=null),function(e){var i=R(e,t,n);return null!=i&&r&&(i=r(i)),i}):null}function E(t,n){return t.t-n.t}function T(n,r,e,i,o){var u,a="@"===e[0],l="#"===e[0],f=M[e],s=m;switch(a?(u=e.substr(1),e=u.replace(F,P)):l&&(e=e.substr(1)),t(f)){case"function":if(s=f(i,o,R,I,e,a,r,n),l)return s;break;case"string":s=q(i,B(f));break;case"object":if((s=q(i,B(f.i),f.f))&&"function"==typeof f.u)return f.u(r,s,e,a,n)}return s?function(t,n,r){var e=arguments.length>3&&void 0!==arguments[3]&&arguments[3];if(e)return t instanceof j?function(e){return t.style(n,r(e))}:function(e){return t.style[n]=r(e)};if(Array.isArray(n)){var i=n.length;return function(e){var o=r(e);if(null==o)for(var u=0;u<i;u++)t[u].removeAttribute(n);else for(var a=0;a<i;a++)t[a].setAttribute(n,o)}}return function(e){var i=r(e);null==i?t.removeAttribute(n):t.setAttribute(n,i)}}(r,e,s,a):null}function N(n,r,e,i){if(!i||"object"!==t(i))return null;var o=null,u=null;return Array.isArray(i)?u=function(t){if(!t||!t.length)return null;for(var n=0;n<t.length;n++)t[n].e&&(t[n].e=I(t[n].e));return t.sort(E)}(i):(u=i.keys,o=i.data||null),u?T(n,r,e,u,o):null}function C(t,n,r){if(!r)return null;var e=[];for(var i in r)if(r.hasOwnProperty(i)){var o=N(t,n,i,r[i]);o&&e.push(o)}return e.length?e:null}function z(t,n){if(!n.duration||n.duration<0)return null;var r=function(t,n){if(!n)return null;var r=[];if(Array.isArray(n))for(var e=n.length,i=0;i<e;i++){var o=n[i];if(2===o.length){var u=null;if("string"==typeof o[0])u=t.getElementById(o[0]);else if(Array.isArray(o[0])){u=[];for(var a=0;a<o[0].length;a++)if("string"==typeof o[0][a]){var l=t.getElementById(o[0][a]);l&&u.push(l)}u=u.length?1===u.length?u[0]:new j(u):null}if(u){var f=C(t,u,o[1]);f&&(r=r.concat(f))}}}else for(var s in n)if(n.hasOwnProperty(s)){var c=t.getElementById(s);if(c){var h=C(t,c,n[s]);h&&(r=r.concat(h))}}return r.length?r:null}(t,n.elements);return r?function(t,n){var r=arguments.length>2&&void 0!==arguments[2]?arguments[2]:1/0,e=arguments.length>3&&void 0!==arguments[3]?arguments[3]:1,i=arguments.length>4&&void 0!==arguments[4]&&arguments[4],o=arguments.length>5&&void 0!==arguments[5]?arguments[5]:1,u=t.length,a=e>0?n:0;i&&r%2==0&&(a=n-a);var l=null;return function(f,s){var c=f%n,h=1+(f-c)/n;s*=e,i&&h%2==0&&(s=-s);var v=!1;if(h>r)c=a,v=!0,-1===o&&(c=e>0?0:n);else if(s<0&&(c=n-c),c===l)return!1;l=c;for(var y=0;y<u;y++)t[y](c);return v}}(r,n.duration,n.iterations||1/0,n.direction||1,!!n.alternate,n.fill||1):null}var L=function(){function t(r,e){var i=arguments.length>2&&void 0!==arguments[2]?arguments[2]:{};n(this,t),this._id=0,this._running=!1,this._rollingBack=!1,this._animations=r,this.duration=e.duration,this.alternate=e.alternate,this.fill=e.fill,this.iterations=e.iterations,this.direction=i.direction||1,this.speed=i.speed||1,this.fps=i.fps||100,this.offset=i.offset||0,this.rollbackStartOffset=0}return e(t,[{key:"_rollback",value:function(){var t=this,n=1/0,r=null;this.rollbackStartOffset=this.offset,this._rollingBack||(this._rollingBack=!0,this._running=!0);this._id=window.requestAnimationFrame((function e(i){if(t._rollingBack){null==r&&(r=i);var o=i-r,u=t.rollbackStartOffset-o,a=Math.round(u*t.speed);if(a>t.duration&&n!=1/0){var l=!!t.alternate&&a/t.duration%2>1,f=a%t.duration;a=(f+=l?t.duration:0)||t.duration}var s=t.fps?1e3/t.fps:0,c=Math.max(0,a);if(c<n-s){t.offset=c,n=c;for(var h=t._animations,v=h.length,y=0;y<v;y++)h[y](c,t.direction)}var d=!1;if(t.iterations>0&&-1===t.fill){var g=t.iterations*t.duration,p=g==a;a=p?0:a,t.offset=p?0:t.offset,d=a>g}a>0&&t.offset>=a&&!d?t._id=window.requestAnimationFrame(e):t.stop()}}))}},{key:"_start",value:function(){var t=this,n=arguments.length>0&&void 0!==arguments[0]?arguments[0]:0,r=-1/0,e=null,i={},o=function o(u){t._running=!0,null==e&&(e=u);var a=Math.round((u-e+n)*t.speed),l=t.fps?1e3/t.fps:0;if(a>r+l&&!t._rollingBack){t.offset=a,r=a;for(var f=t._animations,s=f.length,c=0,h=0;h<s;h++)i[h]?c++:(i[h]=f[h](a,t.direction),i[h]&&c++);if(c===s)return void t._stop()}t._id=window.requestAnimationFrame(o)};this._id=window.requestAnimationFrame(o)}},{key:"_stop",value:function(){this._id&&window.cancelAnimationFrame(this._id),this._running=!1,this._rollingBack=!1}},{key:"play",value:function(){!this._rollingBack&&this._running||(this._rollingBack=!1,this.rollbackStartOffset>this.duration&&(this.offset=this.rollbackStartOffset-(this.rollbackStartOffset-this.offset)%this.duration,this.rollbackStartOffset=0),this._start(this.offset))}},{key:"stop",value:function(){this._stop(),this.offset=0,this.rollbackStartOffset=0;var t=this.direction,n=this._animations;window.requestAnimationFrame((function(){for(var r=0;r<n.length;r++)n[r](0,t)}))}},{key:"reachedToEnd",value:function(){return this.iterations>0&&this.offset>=this.iterations*this.duration}},{key:"restart",value:function(){this._stop(),this.offset=0,this._start()}},{key:"pause",value:function(){this._stop()}},{key:"reverse",value:function(){this.direction=-this.direction}}],[{key:"build",value:function(n,r){return(n=function(t,n){if(M=n,!t||!t.root||!Array.isArray(t.animations))return null;for(var r=document.getElementsByTagName("svg"),e=!1,i=0;i<r.length;i++)if(r[i].id===t.root&&!r[i].svgatorAnimation){(e=r[i]).svgatorAnimation=!0;break}if(!e)return null;var o=t.animations.map((function(t){return z(e,t)})).filter((function(t){return!!t}));return o.length?{element:e,animations:o,animationSettings:t.animationSettings,options:t.options||void 0}:null}(n,r))?{el:n.element,options:n.options||{},player:new t(n.animations,n.animationSettings,n.options)}:null}}]),t}();!function(){for(var t=0,n=["ms","moz","webkit","o"],r=0;r<n.length&&!window.requestAnimationFrame;++r)window.requestAnimationFrame=window[n[r]+"RequestAnimationFrame"],window.cancelAnimationFrame=window[n[r]+"CancelAnimationFrame"]||window[n[r]+"CancelRequestAnimationFrame"];window.requestAnimationFrame||(window.requestAnimationFrame=function(n){var r=Date.now(),e=Math.max(0,16-(r-t)),i=window.setTimeout((function(){n(r+e)}),e);return t=r+e,i},window.cancelAnimationFrame=window.clearTimeout)}();var D=/\.0+$/g;function Q(t){return Number.isInteger(t)?t+"":t.toFixed(6).replace(D,"")}function U(t){var n=arguments.length>1&&void 0!==arguments[1]?arguments[1]:" ";return t&&t.length?t.map(Q).join(n):""}function V(t){return t?null==t.a||t.a>=1?"rgb("+t.r+","+t.g+","+t.b+")":"rgba("+t.r+","+t.g+","+t.b+","+t.a+")":"transparent"}var $={f:null,i:function(t,n,r){return 0===t?n:1===t?r:{x:w(t,n.x,r.x),y:w(t,n.y,r.y)}},u:function(t,n){return function(r){var e=n(r);t.setAttribute("rx",Q(e.x)),t.setAttribute("ry",Q(e.y))}}},G={f:null,i:function(t,n,r){return 0===t?n:1===t?r:{width:w(t,n.width,r.width),height:w(t,n.height,r.height)}},u:function(t,n){return function(r){var e=n(r);t.setAttribute("width",Q(e.width)),t.setAttribute("height",Q(e.height))}}},H=Math.sin,Y=Math.cos,Z=Math.acos,J=Math.asin,K=Math.tan,W=Math.atan2,X=Math.PI/180,tt=180/Math.PI,nt=Math.sqrt,rt=function(){function t(){var r=arguments.length>0&&void 0!==arguments[0]?arguments[0]:1,e=arguments.length>1&&void 0!==arguments[1]?arguments[1]:0,i=arguments.length>2&&void 0!==arguments[2]?arguments[2]:0,o=arguments.length>3&&void 0!==arguments[3]?arguments[3]:1,u=arguments.length>4&&void 0!==arguments[4]?arguments[4]:0,a=arguments.length>5&&void 0!==arguments[5]?arguments[5]:0;n(this,t),this.m=[r,e,i,o,u,a],this.i=null,this.w=null,this.s=null}return e(t,[{key:"determinant",get:function(){var t=this.m;return t[0]*t[3]-t[1]*t[2]}},{key:"isIdentity",get:function(){if(null===this.i){var t=this.m;this.i=1===t[0]&&0===t[1]&&0===t[2]&&1===t[3]&&0===t[4]&&0===t[5]}return this.i}},{key:"point",value:function(t,n){var r=this.m;return{x:r[0]*t+r[2]*n+r[4],y:r[1]*t+r[3]*n+r[5]}}},{key:"translateSelf",value:function(){var t=arguments.length>0&&void 0!==arguments[0]?arguments[0]:0,n=arguments.length>1&&void 0!==arguments[1]?arguments[1]:0;if(!t&&!n)return this;var r=this.m;return r[4]+=r[0]*t+r[2]*n,r[5]+=r[1]*t+r[3]*n,this.w=this.s=this.i=null,this}},{key:"rotateSelf",value:function(){var t=arguments.length>0&&void 0!==arguments[0]?arguments[0]:0;if(t%=360){var n=H(t*=X),r=Y(t),e=this.m,i=e[0],o=e[1];e[0]=i*r+e[2]*n,e[1]=o*r+e[3]*n,e[2]=e[2]*r-i*n,e[3]=e[3]*r-o*n,this.w=this.s=this.i=null}return this}},{key:"scaleSelf",value:function(){var t=arguments.length>0&&void 0!==arguments[0]?arguments[0]:1,n=arguments.length>1&&void 0!==arguments[1]?arguments[1]:1;if(1!==t||1!==n){var r=this.m;r[0]*=t,r[1]*=t,r[2]*=n,r[3]*=n,this.w=this.s=this.i=null}return this}},{key:"skewSelf",value:function(t,n){if(n%=360,(t%=360)||n){var r=this.m,e=r[0],i=r[1],o=r[2],u=r[3];t&&(t=K(t*X),r[2]+=e*t,r[3]+=i*t),n&&(n=K(n*X),r[0]+=o*n,r[1]+=u*n),this.w=this.s=this.i=null}return this}},{key:"resetSelf",value:function(){var t=arguments.length>0&&void 0!==arguments[0]?arguments[0]:1,n=arguments.length>1&&void 0!==arguments[1]?arguments[1]:0,r=arguments.length>2&&void 0!==arguments[2]?arguments[2]:0,e=arguments.length>3&&void 0!==arguments[3]?arguments[3]:1,i=arguments.length>4&&void 0!==arguments[4]?arguments[4]:0,o=arguments.length>5&&void 0!==arguments[5]?arguments[5]:0,u=this.m;return u[0]=t,u[1]=n,u[2]=r,u[3]=e,u[4]=i,u[5]=o,this.w=this.s=this.i=null,this}},{key:"recomposeSelf",value:function(){var t=arguments.length>0&&void 0!==arguments[0]?arguments[0]:null,n=arguments.length>1&&void 0!==arguments[1]?arguments[1]:null,r=arguments.length>2&&void 0!==arguments[2]?arguments[2]:null,e=arguments.length>3&&void 0!==arguments[3]?arguments[3]:null,i=arguments.length>4&&void 0!==arguments[4]?arguments[4]:null;return this.isIdentity||this.resetSelf(),t&&(t.x||t.y)&&this.translateSelf(t.x,t.y),n&&this.rotateSelf(n),r&&(r.x&&this.skewSelf(r.x,0),r.y&&this.skewSelf(0,r.y)),!e||1===e.x&&1===e.y||this.scaleSelf(e.x,e.y),i&&(i.x||i.y)&&this.translateSelf(i.x,i.y),this}},{key:"decompose",value:function(){var t=arguments.length>0&&void 0!==arguments[0]?arguments[0]:0,n=arguments.length>1&&void 0!==arguments[1]?arguments[1]:0,r=this.m,e=r[0]*r[0]+r[1]*r[1],i=[[r[0],r[1]],[r[2],r[3]]],o=nt(e);if(0===o)return{origin:{x:r[4],y:r[5]},translate:{x:t,y:n},scale:{x:0,y:0},skew:{x:0,y:0},rotate:0};i[0][0]/=o,i[0][1]/=o;var u=r[0]*r[3]-r[1]*r[2]<0;u&&(o=-o);var a=i[0][0]*i[1][0]+i[0][1]*i[1][1];i[1][0]-=i[0][0]*a,i[1][1]-=i[0][1]*a;var l=nt(i[1][0]*i[1][0]+i[1][1]*i[1][1]);if(0===l)return{origin:{x:r[4],y:r[5]},translate:{x:t,y:n},scale:{x:o,y:0},skew:{x:0,y:0},rotate:0};i[1][0]/=l,i[1][1]/=l,a/=l;var f=0;return i[1][1]<0?(f=Z(i[1][1])*tt,i[0][1]<0&&(f=360-f)):f=J(i[0][1])*tt,u&&(f=-f),a=W(a,nt(i[0][0]*i[0][0]+i[0][1]*i[0][1]))*tt,u&&(a=-a),{origin:{x:r[4],y:r[5]},translate:{x:t,y:n},scale:{x:o,y:l},skew:{x:a,y:0},rotate:f}}},{key:"toString",value:function(){return null===this.s&&(this.s="matrix("+this.m.map(it).join(" ")+")"),this.s}}]),t}(),et=/\.0+$/;function it(t){return Number.isInteger(t)?t:t.toFixed(14).replace(et,"")}function ot(t,n,r){return t+(n-t)*r}function ut(t,n,r){var e=arguments.length>3&&void 0!==arguments[3]&&arguments[3],i={x:ot(t.x,n.x,r),y:ot(t.y,n.y,r)};return e&&(i.a=at(t,n)),i}function at(t,n){return Math.atan2(n.y-t.y,n.x-t.x)}Object.freeze({M:2,L:2,Z:0,H:1,V:1,C:6,Q:4,T:2,S:4,A:7});var lt={},ft=null;function st(n){var r=function(){if(ft)return ft;if("object"!==("undefined"==typeof document?"undefined":t(document)))return{};var n=document.createElementNS("http://www.w3.org/2000/svg","svg");return n.style.position="absolute",n.style.opacity="0.01",n.style.zIndex="-9999",n.style.left="-9999px",n.style.width="1px",n.style.height="1px",ft={svg:n}}().svg;if(!r)return function(t){return null};var e=document.createElementNS(r.namespaceURI,"path");e.setAttributeNS(null,"d",n),e.setAttributeNS(null,"fill","none"),e.setAttributeNS(null,"stroke","none"),r.appendChild(e);var i=e.getTotalLength();return function(t){var n=e.getPointAtLength(i*t);return{x:n.x,y:n.y}}}function ct(t){return lt[t]?lt[t]:lt[t]=st(t)}function ht(t,n,r,e){if(!t||!e)return!1;var i=["M",t.x,t.y];if(n&&r&&(i.push("C"),i.push(n.x),i.push(n.y),i.push(r.x),i.push(r.y)),n?!r:r){var o=n||r;i.push("Q"),i.push(o.x),i.push(o.y)}return n||r||i.push("L"),i.push(e.x),i.push(e.y),i.join(" ")}function vt(t,n,r,e){var i=arguments.length>4&&void 0!==arguments[4]?arguments[4]:1,o=ht(t,n,r,e),u=ct(o);try{return u(i)}catch(t){return null}}function yt(t,n,r,e){var i=1-e;return i*i*t+2*i*e*n+e*e*r}function dt(t,n,r,e){return 2*(1-e)*(n-t)+2*e*(r-n)}function gt(t,n,r,e){var i=arguments.length>4&&void 0!==arguments[4]&&arguments[4],o=vt(t,n,null,r,e);return o||(o={x:yt(t.x,n.x,r.x,e),y:yt(t.y,n.y,r.y,e)}),i&&(o.a=pt(t,n,r,e)),o}function pt(t,n,r,e){return Math.atan2(dt(t.y,n.y,r.y,e),dt(t.x,n.x,r.x,e))}function mt(t,n,r,e,i){var o=i*i;return i*o*(e-t+3*(n-r))+3*o*(t+r-2*n)+3*i*(n-t)+t}function bt(t,n,r,e,i){var o=1-i;return 3*(o*o*(n-t)+2*o*i*(r-n)+i*i*(e-r))}function wt(t,n,r,e,i){var o=arguments.length>5&&void 0!==arguments[5]&&arguments[5],u=vt(t,n,r,e,i);return u||(u={x:mt(t.x,n.x,r.x,e.x,i),y:mt(t.y,n.y,r.y,e.y,i)}),o&&(u.a=xt(t,n,r,e,i)),u}function xt(t,n,r,e,i){return Math.atan2(bt(t.y,n.y,r.y,e.y,i),bt(t.x,n.x,r.x,e.x,i))}function kt(t,n,r){var e=arguments.length>3&&void 0!==arguments[3]&&arguments[3];if(_t(n)){if(St(r))return gt(n,r.start,r,t,e)}else if(_t(r)){if(n.end)return gt(n,n.end,r,t,e)}else{if(n.end)return r.start?wt(n,n.end,r.start,r,t,e):gt(n,n.end,r,t,e);if(r.start)return gt(n,r.start,r,t,e)}return ut(n,r,t,e)}function At(t,n,r){var e=kt(t,n,r,!0);return e.a=function(t){var n=arguments.length>1&&void 0!==arguments[1]&&arguments[1];return n?t+Math.PI:t}(e.a)/p,e}function _t(t){return!t.type||"corner"===t.type}function St(t){return null!=t.start&&!_t(t)}var Ot=new rt;var Mt={f:Q,i:b},jt={f:Q,i:function(t,n,r){var e=b(t,n,r);return e<=0?0:e>=1?1:e}};function Ft(t,n,r,e,i,o,u,a){return n=function(t,n,r){for(var e,i,o,u=t.length-1,a={},l=0;l<=u;l++)(e=t[l]).e&&(e.e=n(e.e)),e.v&&"g"===(i=e.v).t&&i.r&&(o=r.getElementById(i.r))&&(a[i.r]=o.querySelectorAll("stop"));return a}(t,e,a),function(e){var i,o=r(e,t,Pt);return o?"c"===o.t?V(o.v):"g"===o.t?(n[o.r]&&function(t,n){for(var r=0,e=t.length;r<e;r++)t[r].setAttribute("stop-color",V(n[r]))}(n[o.r],o.v),(i=o.r)?"url(#"+i+")":"none"):"none":"none"}}function Pt(t,n,r){if(0===t)return n;if(1===t)return r;if(n&&r){var e=n.t;if(e===r.t)switch(n.t){case"c":return{t:e,v:A(t,n.v,r.v)};case"g":if(n.r===r.r)return{t:e,v:_(t,n.v,r.v),r:n.r}}}return m(t,n,r)}var Bt={fill:Ft,"fill-opacity":jt,stroke:Ft,"stroke-opacity":jt,"stroke-width":Mt,"stroke-dashoffset":{f:Q,i:b},"stroke-dasharray":{f:function(t){var n=arguments.length>1&&void 0!==arguments[1]?arguments[1]:" ";return t&&t.length>0&&(t=t.map((function(t){return Math.floor(1e4*t)/1e4}))),U(t,n)},i:function(t,n,r){var e,i,o,u=n.length,a=r.length;if(u!==a)if(0===u)n=S(u=a,0);else if(0===a)a=u,r=S(u,0);else{var l=(o=(e=u)*(i=a)/function(t,n){for(var r;n;)r=n,n=t%n,t=r;return t||1}(e,i))<0?-o:o;n=O(n,Math.floor(l/u)),r=O(r,Math.floor(l/a)),u=a=l}for(var f=[],s=0;s<u;s++)f.push(g(w(t,n[s],r[s]),6));return f}},opacity:jt,transform:function(n,r,e,i){if(!(n=function(n,r){if(!n||"object"!==t(n))return null;var e=!1;for(var i in n)n.hasOwnProperty(i)&&(n[i]&&n[i].length?(n[i].forEach((function(t){t.e&&(t.e=r(t.e))})),e=!0):delete n[i]);return e?n:null}(n,i)))return null;var o=function(t,i,o){var u=arguments.length>3&&void 0!==arguments[3]?arguments[3]:null;return n[t]?e(i,n[t],o):r&&r[t]?r[t]:u};return r&&r.a&&n.o?function(t){var r=e(t,n.o,At);return Ot.recomposeSelf(r,o("r",t,b,0)+r.a,o("k",t,x),o("s",t,x),o("t",t,x)).toString()}:function(t){return Ot.recomposeSelf(o("o",t,kt,null),o("r",t,b,0),o("k",t,x),o("s",t,x),o("t",t,x)).toString()}},r:Mt,"#size":G,"#radius":$,_:function(t,n){if(Array.isArray(t))for(var r=0;r<t.length;r++)this[t[r]]=n;else this[t]=n}};return function(t){!function(t,n){if("function"!=typeof n&&null!==n)throw new TypeError("Super expression must either be null or a function");t.prototype=Object.create(n&&n.prototype,{constructor:{value:t,writable:!0,configurable:!0}}),n&&o(t,n)}(u,t);var r=a(u);function u(){return n(this,u),r.apply(this,arguments)}return e(u,null,[{key:"build",value:function(t){var n=l(i(u),"build",this).call(this,t,Bt);n.el,n.options;var r=n.player;return function(t,n,r){t.play()}(r),r}}]),u}(L)}));
__SVGATOR_PLAYER__.build({"root":"e7XGylhxCrw1","animations":[{"duration":6000,"direction":1,"iterations":0,"fill":1,"alternate":false,"speed":1,"elements":{"e7XGylhxCrw11":{"transform":{"data":{"t":{"x":213.95837391894537,"y":-2.3994120000000017}},"keys":{"o":[{"t":0,"v":{"x":-88.45798392000009,"y":20.398922000000006,"type":"corner"}},{"t":1000,"v":{"x":-0.08047599999997601,"y":20.398922,"type":"corner"}},{"t":2000,"v":{"x":71.04201607999997,"y":17.99951,"type":"corner"}},{"t":3000,"v":{"x":1.0746999999999787,"y":19.398922000000002,"type":"corner"}},{"t":5000,"v":{"x":-213.95798392,"y":21.398922000000006,"type":"corner"}}]}}},"e7XGylhxCrw13":{"transform":{"data":{"t":{"x":-1.4210854715202004e-14,"y":-0.9995100000000008}},"keys":{"o":[{"t":0,"v":{"x":67.79920959472656,"y":81,"type":"corner"}},{"t":1000,"v":{"x":142.50038999999998,"y":82.99951,"type":"corner"}},{"t":2000,"v":{"x":208.799,"y":80.99951,"type":"corner"}},{"t":3000,"v":{"x":285.00039,"y":81.99951,"type":"corner"}},{"t":5000,"v":{"x":67.7992,"y":81.99951,"type":"corner"}}]}}},"e7XGylhxCrw14":{"transform":{"data":{"t":{"x":4.726544489130902e-9,"y":-2.9990199999999874}},"keys":{"o":[{"t":0,"v":{"x":67.79920959,"y":82.99951,"type":"corner"}},{"t":1000,"v":{"x":142.50038999999998,"y":82.99951,"type":"corner"}},{"t":2000,"v":{"x":208.799,"y":80.99951,"type":"corner"}},{"t":3000,"v":{"x":285.00039,"y":81.99951,"type":"corner"}},{"t":5000,"v":{"x":67.7992,"y":81.99951,"type":"corner"}}]}}},"e7XGylhxCrw16":{"transform":{"data":{"t":{"x":0.00039000000015221303,"y":0.07109803999986752}},"keys":{"o":[{"t":0,"v":{"x":0.00038999999992483936,"y":144.9995099999999,"type":"corner"}},{"t":1000,"v":{"x":50.7992,"y":146.99951,"type":"corner"}},{"t":2000,"v":{"x":126.011137,"y":146.99951,"type":"corner"}},{"t":3000,"v":{"x":189.036057,"y":146.99951,"type":"corner"}},{"t":4000,"v":{"x":285.00039,"y":144.99951,"type":"corner"}},{"t":6000,"v":{"x":0,"y":144.92841196,"type":"corner"}}]}}}}}],"options":{"start":"load","hover":"freeze","click":"freeze","scroll":25,"font":"embed","exportedIds":"unique","svgFormat":"animated","title":"undraw_Options_re_9vxh"},"animationSettings":{"duration":6000,"direction":1,"iterations":0,"fill":1,"alternate":false,"speed":1}})]]></script></svg>